<svg xmlns="http://www.w3.org/2000/svg" viewBox="0 0 640 360" role="img" aria-labelledby="title desc">
  <title id="title">Harmony Downloads Page Mockup</title>
  <desc id="desc">Illustration der Download-Verwaltung mit Formular und Tabelle</desc>
  <rect width="640" height="360" fill="#0f172a" rx="24" />
  <rect x="24" y="24" width="592" height="312" fill="#111827" rx="18" />
  <rect x="48" y="52" width="544" height="96" fill="#1f2937" rx="12" />
  <text x="64" y="86" fill="#f8fafc" font-size="20" font-family="'Inter', sans-serif">Download-Management</text>
  <rect x="64" y="100" width="320" height="32" rx="8" fill="#0f172a" opacity="0.8" />
  <rect x="400" y="100" width="168" height="32" rx="8" fill="#22d3ee" opacity="0.8" />
  <text x="416" y="121" fill="#0f172a" font-size="14" font-family="'Inter', sans-serif">Download starten</text>
  <rect x="48" y="168" width="544" height="136" fill="#1f2937" rx="12" />
  <rect x="64" y="188" width="512" height="24" fill="#0f172a" opacity="0.7" />
  <text x="72" y="204" fill="#cbd5f5" font-size="12" font-family="'Inter', sans-serif">ID</text>
  <text x="142" y="204" fill="#cbd5f5" font-size="12" font-family="'Inter', sans-serif">Dateiname</text>
  <text x="320" y="204" fill="#cbd5f5" font-size="12" font-family="'Inter', sans-serif">Status</text>
  <text x="448" y="204" fill="#cbd5f5" font-size="12" font-family="'Inter', sans-serif">Fortschritt</text>
  <rect x="64" y="220" width="512" height="28" fill="#111827" opacity="0.8" />
  <rect x="64" y="252" width="512" height="28" fill="#111827" opacity="0.6" />
  <rect x="448" y="230" width="112" height="12" fill="#1d4ed8" rx="6" />
  <rect x="448" y="262" width="78" height="12" fill="#15803d" rx="6" />
</svg>
